<svg xmlns="http://www.w3.org/2000/svg" viewBox="0 0 547.71 547.71"><defs><linearGradient id="a" x1="127.57" x2="543.51" y1="258.47" y2="288.31" gradientTransform="matrix(1 0 0 -1 0 547.06)" gradientUnits="userSpaceOnUse"><stop offset="0" stop-color="#49b8c7"/><stop offset="1" stop-color="#266ab2"/></linearGradient><linearGradient id="b" x1="127.29" x2="543.22" y1="262.48" y2="292.33" gradientTransform="matrix(1 0 0 -1 0 547.06)" gradientUnits="userSpaceOnUse"><stop offset="0" stop-color="#49b8c7"/><stop offset="1" stop-color="#266ab2"/></linearGradient><linearGradient id="c" x1="0" x2="216" y1="273.22" y2="273.22" gradientTransform="matrix(1 0 0 -1 0 547.06)" gradientUnits="userSpaceOnUse"><stop offset="0" stop-color="#f0feb3"/><stop offset="1" stop-color="#e6e09e"/></linearGradient></defs><path fill="#1e2b7e" d="m533.87 316.06-111 135.72c-11.47 15.63-33.43 19-49.06 7.54a35.4 35.4 0 0 1-5.76-5.31l-35-40.35-80.69-93.08c-23.26-26.81-23.26-66.65 0-93.46l80.7-93.08 35-40.38c12.73-14.65 34.91-16.2 49.56-3.48a35 35 0 0 1 5.26 5.71l111 135.75c18.46 25.12 18.45 59.31-.01 84.42"/><g opacity=".8"><path fill="url(#a)" d="m333.07 134.04 83 97.6c18.45 25.11 18.45 59.3 0 84.41l-83 97.6-80.72-93.07c-23.25-26.82-23.25-66.65 0-93.47z"/><path fill="url(#b)" d="m305.07 95.9 28 38.14-80.72 93.07c-23.25 26.82-23.25 66.65 0 93.47l80.72 93.07-28 38.14c-11.48 15.63-33.46 18.98-49.08 7.5a35 35 0 0 1-5.73-5.28L134.55 320.58c-23.24-26.81-23.24-66.64 0-93.45L250.24 93.7c12.71-14.66 34.9-16.23 49.56-3.51 1.96 1.7 3.73 3.62 5.27 5.71"/></g><path fill="url(#c)" d="m188 95.9 28 38.14-80.72 93.07c-23.25 26.82-23.25 66.65 0 93.47L216 413.65l-28 38.14c-11.48 15.63-33.46 18.98-49.08 7.5a35 35 0 0 1-5.73-5.28L17.44 320.58c-23.24-26.81-23.24-66.64 0-93.45L133.13 93.7c12.7-14.67 34.89-16.26 49.55-3.56 1.98 1.72 3.76 3.65 5.32 5.76"/></svg>