<svg xmlns="http://www.w3.org/2000/svg" xmlns:xlink="http://www.w3.org/1999/xlink" viewBox="0 0 547.71 384.54"><defs><style>.cls-1{fill:#1e2b7e;}.cls-2{opacity:0.8;}.cls-3{fill:url(#linear-gradient);}.cls-4{fill:url(#linear-gradient-2);}.cls-5{fill:url(#linear-gradient-3);}</style><linearGradient id="linear-gradient" x1="127.57" y1="207.01" x2="543.51" y2="177.17" gradientUnits="userSpaceOnUse"><stop offset="0" stop-color="#49b8c7"/><stop offset="1" stop-color="#266ab2"/></linearGradient><linearGradient id="linear-gradient-2" x1="127.29" y1="203" x2="543.22" y2="173.15" xlink:href="#linear-gradient"/><linearGradient id="linear-gradient-3" y1="192.27" x2="215.96" y2="192.27" gradientUnits="userSpaceOnUse"><stop offset="0" stop-color="#f0feb3"/><stop offset="1" stop-color="#e6e09e"/></linearGradient></defs><g id="Layer_2" data-name="Layer 2"><g id="Layer_1-2" data-name="Layer 1"><path class="cls-1" d="M533.87,234.48l-111,135.72a35.1,35.1,0,0,1-54.82,2.23l-35-40.35L252.36,239a71.31,71.31,0,0,1,0-93.46l80.7-93.08,35-40.38a35.13,35.13,0,0,1,54.82,2.23l111,135.75A71.27,71.27,0,0,1,533.87,234.48Z"/><g class="cls-2"><path class="cls-3" d="M333.07,52.46l83,97.6a71.28,71.28,0,0,1,0,84.41l-83,97.6L252.35,239a71.35,71.35,0,0,1,0-93.47Z"/><path class="cls-4" d="M305.07,14.32l28,38.14-80.72,93.07a71.35,71.35,0,0,0,0,93.47l80.72,93.07-28,38.14a35.11,35.11,0,0,1-54.81,2.22L134.55,239a71.34,71.34,0,0,1,0-93.45L250.24,12.12A35.13,35.13,0,0,1,305.07,14.32Z"/></g><path class="cls-5" d="M188,14.32l28,38.14-80.72,93.07a71.35,71.35,0,0,0,0,93.47L216,332.07l-28,38.14a35.11,35.11,0,0,1-54.81,2.22L17.44,239a71.34,71.34,0,0,1,0-93.45L133.13,12.12A35.13,35.13,0,0,1,188,14.32Z"/></g></g></svg>