<?xml version="1.0" encoding="UTF-8"?>
<svg id="Layer_1" data-name="Layer 1" xmlns="http://www.w3.org/2000/svg" viewBox="0 0 507.28 363">
  <defs>
    <style>
      .cls-1 {
        fill: none;
        stroke: #fff;
        stroke-miterlimit: 10;
        stroke-width: 23px;
      }
    </style>
  </defs>
  <path class="cls-1" d="M483.54,218.83l-98.13,120c-11.81,16.07-35.45,17-48.47,1.97l-30.95-35.68-71.36-82.29c-20.57-23.73-20.57-58.94,0-82.64l71.36-82.29,30.95-35.71c13.02-15.03,36.66-14.07,48.47,1.97l98.13,120.03c16.3,22.22,16.33,52.42,0,74.63Z"/>
  <g>
    <path class="cls-1" d="M306,57.88l73.39,86.3c16.3,22.22,16.32,52.43,0,74.64l-73.39,86.29-71.37-82.29c-20.55-23.71-20.55-58.94,0-82.64l71.38-82.29Z"/>
    <path class="cls-1" d="M281.24,24.16l24.75,33.72-71.38,82.29c-20.55,23.71-20.55,58.94,0,82.64l71.37,82.29-24.75,33.72c-11.8,16.05-35.42,16.99-48.46,1.97l-102.31-117.98c-20.55-23.71-20.55-58.94-.02-82.63L232.76,22.22c13.06-15.04,36.7-14.09,48.48,1.95Z"/>
  </g>
  <path class="cls-1" d="M177.7,24.16l24.75,33.72-71.38,82.29c-20.55,23.71-20.55,58.94,0,82.64l71.37,82.29-24.75,33.72c-11.8,16.05-35.42,16.99-48.46,1.97L26.92,222.82c-20.55-23.71-20.55-58.94-.02-82.63L129.21,22.22c13.06-15.04,36.7-14.09,48.48,1.95Z"/>
</svg>