<?xml version="1.0" encoding="UTF-8"?>
<svg id="Layer_1" data-name="Layer 1" xmlns="http://www.w3.org/2000/svg" viewBox="0 0 559.71 396.54">
  <defs>
    <style>
      .cls-1 {
        fill: none;
        stroke: #fff;
        stroke-miterlimit: 10;
        stroke-width: 12px;
      }
    </style>
  </defs>
  <path class="cls-1" d="M539.87,240.48l-110.98,135.72c-13.35,18.17-40.09,19.22-54.82,2.23l-35-40.35-80.7-93.07c-23.26-26.84-23.26-66.66,0-93.47l80.7-93.07,35-40.38c14.73-16.99,41.47-15.91,54.82,2.23l110.98,135.75c18.44,25.13,18.47,59.28,0,84.41Z"/>
  <g>
    <path class="cls-1" d="M339.07,58.46l83,97.6c18.44,25.13,18.46,59.3,0,84.41l-83,97.6-80.72-93.07c-23.25-26.81-23.25-66.66,0-93.47l80.72-93.07Z"/>
    <path class="cls-1" d="M311.07,20.32l28,38.14-80.72,93.07c-23.25,26.81-23.25,66.66,0,93.47l80.72,93.07-28,38.14c-13.35,18.16-40.06,19.22-54.81,2.22l-115.72-133.43c-23.25-26.81-23.25-66.66-.02-93.45L256.24,18.12c14.77-17.01,41.5-15.93,54.83,2.2Z"/>
  </g>
  <path class="cls-1" d="M193.96,20.32l28,38.14-80.72,93.07c-23.25,26.81-23.25,66.66,0,93.47l80.72,93.07-28,38.14c-13.35,18.16-40.06,19.22-54.81,2.22L23.44,245c-23.25-26.81-23.25-66.66-.02-93.45L139.13,18.12c14.77-17.01,41.5-15.93,54.83,2.2Z"/>
</svg>