<svg xmlns="http://www.w3.org/2000/svg" xmlns:xlink="http://www.w3.org/1999/xlink" viewBox="280 0 678.32 179.93"><defs><style>.cls-6{fill:#fff;}</style></defs><g id="Layer_2" data-name="Layer 2"><g id="Layer_1-2" data-name="Layer 1"><path class="cls-6" d="M350.78,83.24,320.6,78.69c-10.92-1.75-16-7-16-16.53,0-16.64,15.2-20.13,28-20.13,19.55,0,30.31,8.45,32,25.12l.23,2.35h19.71l-.19-2.79C382.42,40.19,363.64,25,332.74,25c-35.86,0-48.64,19.4-48.64,37.55,0,19.78,10.79,31,33,34.23l28.53,4.37c14.28,2.38,19.84,7.72,19.84,19.08,0,10.36-3.63,20-30,20-23.44,0-35-9.76-35.42-29.83l-.05-2.56H280.1v2.61c0,17.49,7.19,46.82,55.37,46.82,33.48,0,50.46-13.12,50.46-39C385.93,98.21,374.77,87.1,350.78,83.24Z"/><path class="cls-6" d="M429.59,38.08H417.2l-5.58,19.36-19.08,4.68V75h17.28v55.62c0,17.19,6.9,23.89,24.62,23.89h24.08v-17H429.59V75h30V58.28h-30Z"/><path class="cls-6" d="M492.73,73.64V58.28H473v96.19h19.78V118.38c0-17.87,3-29.13,9.53-35.41,4.75-4.6,11.45-6.69,20.61-6.37h6.43V57h-5.89C509.85,57,499.57,62.59,492.73,73.64Z"/><path class="cls-6" d="M617.72,129.3V85.63c0-19.34-14.15-30.44-38.82-30.44-25.63,0-41.3,12.78-41.9,34.19l-.08,2.68h19.47l.19-2.4c.93-12.14,8.2-17.79,22.87-17.79,17.42,0,19.77,7,19.77,13.76,0,4.55-1.66,6.86-11.46,8.53L564.65,98c-20.08,3.35-29.84,13.12-29.84,29.87,0,17.88,12.5,29,32.63,29,17.38,0,26.88-8.06,32-15.67.24,3.62.56,7.26.91,10.93l.22,2.37h18.54l-.29-2.87A210.38,210.38,0,0,1,617.72,129.3Zm-47.37,10.86c-5.82,0-15.58-1.67-15.58-12.86,0-6.74,2.74-11.79,16.11-14.55L586,109.66c5.3-1.12,9.48-2.25,13.23-4.13v3.21C599.22,124.38,590.3,140.16,570.35,140.16Z"/><path class="cls-6" d="M662.47,38.08H650.08L644.5,57.44l-19.08,4.68V75H642.7v55.62c0,17.19,6.91,23.89,24.63,23.89h24.08v-17H662.47V75h30V58.28h-30Z"/><path class="cls-6" d="M771.52,95.64c0,16.63-3.51,44.52-27,44.52-12.2,0-20.32-3.89-20.32-22.87v-59H704.38v60.65c0,25.52,12.08,38.45,35.91,38.45,14,0,24.43-5.63,31.23-16.78v13.87h19.77V58.28H771.52Z"/><path class="cls-6" d="M925,55.37c-15.53,0-26.69,6.69-33.29,19.92-4.32-13.23-14.57-19.92-30.58-19.92-13.58,0-23.79,5.43-30.5,16.17V58.28H810.81v96.19h19.78V117.11c0-39.74,14.81-44.33,26-44.33,13,0,18.31,6.41,18.31,22.13v59.56h19.41V117.11c0-39.74,14.92-44.33,26.14-44.33,9.42,0,18.13,2.68,18.13,22.13v59.56h19.78V93.28C958.32,68.12,947.09,55.37,925,55.37Z"/></g></g></svg>

