<svg id="Layer_1" data-name="Layer 1" xmlns="http://www.w3.org/2000/svg" xmlns:xlink="http://www.w3.org/1999/xlink" viewBox="0 0 1920 1080"><defs><style>.cls-1{fill:#fff;}.cls-2{fill:#1e2b7e;}.cls-3{opacity:0.8;}.cls-4{fill:url(#linear-gradient);}.cls-5{fill:url(#linear-gradient-2);}.cls-6{fill:url(#linear-gradient-3);}</style><linearGradient id="linear-gradient" x1="540.53" y1="546.9" x2="735.15" y2="532.93" gradientUnits="userSpaceOnUse"><stop offset="0" stop-color="#49b8c7"/><stop offset="1" stop-color="#266ab2"/></linearGradient><linearGradient id="linear-gradient-2" x1="540.4" y1="545.02" x2="735.02" y2="531.06" xlink:href="#linear-gradient"/><linearGradient id="linear-gradient-3" x1="480.84" y1="540" x2="581.89" y2="540" gradientUnits="userSpaceOnUse"><stop offset="0" stop-color="#f0feb3"/><stop offset="1" stop-color="#e6e09e"/></linearGradient></defs><rect class="cls-1" width="1920" height="1080"/><path class="cls-2" d="M730.65,559.75l-51.93,63.51a16.43,16.43,0,0,1-25.65,1l-16.38-18.88-37.77-43.55a33.37,33.37,0,0,1,0-43.73l37.77-43.55,16.38-18.9a16.44,16.44,0,0,1,25.65,1.05l51.93,63.52A33.35,33.35,0,0,1,730.65,559.75Z"/><g class="cls-3"><path class="cls-4" d="M636.69,474.58l38.84,45.67a33.38,33.38,0,0,1,0,39.5l-38.84,45.66-37.77-43.54a33.39,33.39,0,0,1,0-43.74Z"/><path class="cls-5" d="M623.59,456.74l13.1,17.84-37.77,43.55a33.39,33.39,0,0,0,0,43.74l37.77,43.54-13.1,17.85a16.43,16.43,0,0,1-25.65,1L543.8,561.87a33.39,33.39,0,0,1,0-43.73l54.14-62.43A16.44,16.44,0,0,1,623.59,456.74Z"/></g><path class="cls-6" d="M568.79,456.74l13.1,17.84-37.77,43.55a33.39,33.39,0,0,0,0,43.74l37.77,43.54-13.1,17.85a16.42,16.42,0,0,1-25.64,1L489,561.87a33.39,33.39,0,0,1,0-43.73l54.15-62.43A16.43,16.43,0,0,1,568.79,456.74Z"/><path d="M831.62,533.27l-30.18-4.54c-10.91-1.75-16-7-16-16.53,0-16.64,15.21-20.14,28-20.14,19.55,0,30.31,8.46,32,25.13l.23,2.35h19.72l-.2-2.79C863.27,490.23,844.48,475,813.58,475c-35.86,0-48.64,19.39-48.64,37.54,0,19.79,10.79,31,33,34.24l28.53,4.36c14.27,2.38,19.83,7.73,19.83,19.08,0,10.36-3.63,20-30,20-23.44,0-35-9.75-35.42-29.83l0-2.55h-19.9v2.61c0,17.48,7.19,46.82,55.37,46.82,33.49,0,50.46-13.12,50.46-39C866.77,548.25,855.61,537.14,831.62,533.27Z"/><path d="M910.44,488.12H898l-5.58,19.36-19.08,4.67V525h17.28v55.61c0,17.2,6.91,23.9,24.63,23.9h24.08v-17H910.44V525h30V508.32h-30Z"/><path d="M973.57,523.68V508.32H953.79v96.19h19.78V568.42c0-17.88,3-29.13,9.53-35.42,4.75-4.59,11.45-6.68,20.61-6.37h6.43V507h-5.88C990.69,507,980.41,512.63,973.57,523.68Z"/><path d="M1098.56,579.34V535.67c0-19.35-14.14-30.45-38.81-30.45-25.64,0-41.31,12.79-41.91,34.2l-.08,2.68h19.48l.18-2.41c.94-12.14,8.2-17.79,22.87-17.79,17.43,0,19.77,7,19.77,13.77,0,4.55-1.65,6.86-11.46,8.53L1045.49,548c-20.08,3.34-29.84,13.11-29.84,29.86,0,17.88,12.51,29,32.63,29,17.38,0,26.88-8,32-15.66.24,3.62.57,7.26.91,10.93l.22,2.37h18.55l-.3-2.88A210.09,210.09,0,0,1,1098.56,579.34Zm-47.36,10.85c-5.83,0-15.59-1.67-15.59-12.85,0-6.75,2.74-11.8,16.11-14.55l15.11-3.1a53.92,53.92,0,0,0,13.23-4.12v3.21C1080.06,574.42,1071.14,590.19,1051.2,590.19Z"/><path d="M1143.32,488.12h-12.4l-5.58,19.36-19.08,4.67V525h17.28v55.61c0,17.2,6.91,23.9,24.63,23.9h24.08v-17h-28.93V525h30V508.32h-30Z"/><path d="M1252.36,545.68c0,16.62-3.51,44.51-27,44.51-12.19,0-20.32-3.89-20.32-22.86v-59h-19.77V569c0,25.51,12.08,38.45,35.91,38.45,14,0,24.43-5.63,31.23-16.78v13.87h19.77V508.32h-19.77Z"/><path d="M1405.8,505.4c-15.53,0-26.69,6.7-33.29,19.93-4.32-13.23-14.57-19.93-30.57-19.93-13.58,0-23.8,5.43-30.51,16.17V508.32h-19.77v96.19h19.77V567.15c0-39.74,14.81-44.34,26-44.34,13,0,18.31,6.42,18.31,22.14v59.56h19.41V567.15c0-39.74,14.92-44.34,26.14-44.34,9.42,0,18.14,2.68,18.14,22.14v59.56h19.77v-61.2C1439.16,518.16,1427.93,505.4,1405.8,505.4Z"/></svg>